<?xml version="1.0" encoding="UTF-8" ?>
<!DOCTYPE svg PUBLIC "-//W3C//DTD SVG 1.1//EN" "http://www.w3.org/Graphics/SVG/1.1/DTD/svg11.dtd">
<svg width="184pt" height="184pt" viewBox="0 0 184 184" version="1.1" xmlns="http://www.w3.org/2000/svg">
<path fill="#ffffff" d=" M 0.00 0.00 L 184.00 0.00 L 184.00 184.00 L 0.00 184.00 L 0.00 0.00 Z" />
<path fill="#000000" d=" M 110.26 11.13 C 112.33 10.03 115.60 10.03 116.85 12.37 C 118.82 16.54 115.09 22.47 110.23 21.21 C 105.97 19.74 106.86 13.16 110.26 11.13 Z" />
<path fill="#000000" d=" M 171.09 37.25 C 174.54 37.48 176.90 34.16 180.36 34.28 C 180.77 37.12 178.46 39.05 176.39 40.50 C 172.83 42.80 168.43 42.49 164.38 42.78 C 161.94 53.21 158.77 63.48 156.91 74.04 C 156.27 76.06 157.53 78.66 159.95 78.03 C 165.48 77.01 169.71 72.80 174.49 70.11 C 175.07 70.70 176.23 71.88 176.81 72.47 C 171.86 76.33 166.76 80.00 161.42 83.29 C 158.04 85.27 154.12 87.25 150.09 86.30 C 146.51 84.32 147.52 79.54 147.67 76.16 C 149.59 64.83 153.31 53.89 156.06 42.75 C 153.41 42.75 150.75 42.75 148.10 42.74 C 143.91 53.72 139.75 64.79 133.94 75.04 C 130.77 80.61 125.53 85.60 118.93 86.44 C 116.47 86.58 113.66 86.89 111.59 85.24 C 108.72 83.09 109.66 77.79 113.22 76.89 C 116.97 76.15 120.92 78.23 124.57 76.69 C 128.16 75.13 130.59 71.81 132.47 68.51 C 136.98 60.17 140.59 51.38 144.07 42.57 C 138.85 42.44 133.56 41.04 128.37 42.07 C 125.95 42.45 125.56 44.99 125.75 47.01 C 127.51 47.72 130.16 47.64 130.54 50.00 C 130.44 52.91 126.87 53.53 124.87 52.08 C 120.98 49.49 120.58 43.25 123.87 40.01 C 127.32 36.72 132.28 35.47 136.96 35.72 C 148.34 36.05 159.69 37.44 171.09 37.25 Z" />
<path fill="#000000" d=" M 87.16 47.46 C 92.16 42.34 97.62 36.65 105.03 35.49 C 107.31 34.99 110.93 35.94 110.19 38.97 C 107.55 51.11 103.14 62.82 100.76 75.03 C 100.44 76.69 100.09 78.70 101.63 79.93 C 105.03 77.68 107.86 74.73 110.90 72.03 C 111.52 72.65 112.75 73.89 113.37 74.51 C 108.72 78.97 104.13 84.00 97.93 86.24 C 95.29 87.24 91.24 86.24 91.24 82.87 C 91.09 75.16 93.80 67.76 95.65 60.37 C 97.07 54.41 99.61 48.73 100.43 42.63 C 95.85 42.74 93.22 47.06 90.06 49.74 C 89.09 48.98 88.13 48.22 87.16 47.46 Z" />
<path fill="#000000" d=" M 47.86 71.57 C 54.89 67.90 63.13 66.61 70.95 67.92 C 77.27 68.87 82.38 74.62 82.49 81.03 C 83.31 88.92 79.51 96.52 74.09 102.02 C 61.54 114.08 44.84 120.02 29.42 127.38 C 28.48 134.46 27.47 142.01 29.85 148.91 C 32.28 154.82 39.89 154.90 45.04 152.98 C 54.99 149.30 63.27 142.41 71.80 136.29 C 73.10 138.10 74.39 139.91 75.68 141.72 C 67.51 149.67 58.55 156.96 48.58 162.55 C 40.11 167.10 30.19 170.68 20.51 168.33 C 14.08 166.56 10.46 160.07 9.75 153.80 C 7.36 135.36 12.46 116.61 21.44 100.54 C 27.79 89.05 35.95 77.78 47.86 71.57 Z" />
<path fill="#ffffff" d=" M 50.79 78.64 C 54.97 76.48 61.00 77.05 63.53 81.42 C 67.16 87.17 64.92 94.73 60.68 99.53 C 52.71 108.67 41.75 114.50 30.89 119.51 C 32.50 110.35 35.10 101.34 38.86 92.82 C 41.40 87.13 45.13 81.58 50.79 78.64 Z" />
</svg>
